<?xml version="1.0" standalone="no"?>
 <!DOCTYPE svg PUBLIC "-//W3C//DTD SVG 1.1//EN" 
 "http://www.w3.org/Graphics/SVG/1.1/DTD/svg11.dtd"> 
<svg
  xmlns:svg="http://www.w3.org/2000/svg"
  xmlns="http://www.w3.org/2000/svg"
  xmlns:xlink="http://www.w3.org/1999/xlink"
  version="1.1"
  width="6.885940cm" height="2.682240cm" viewBox="0 0 68859400 26822400">
<title>SVG Picture created as bool2-brd.svg date 2022/12/11 21:49:16 </title>
  <desc>Picture generated by PCBNEW </desc>
<g style="fill:#000000; fill-opacity:1.000000;stroke:#000000; stroke-opacity:1.000000;
stroke-linecap:round; stroke-linejoin:round;"
 transform="translate(0 0) scale(1 1)">
</g>
<g style="fill:#000000; fill-opacity:0.0; 
stroke:#000000; stroke-width:0.000000; stroke-opacity:1; 
stroke-linecap:round; stroke-linejoin:round;">
<g >
</g>
<g style="fill:#000000; fill-opacity:0.0; 
stroke:#000000; stroke-width:1.000000; stroke-opacity:1; 
stroke-linecap:round; stroke-linejoin:round;">
</g>
<g style="fill:#000000; fill-opacity:1.0; 
stroke:#000000; stroke-width:1.000000; stroke-opacity:1; 
stroke-linecap:round; stroke-linejoin:round;">
<path style="fill:#000000; fill-opacity:1.0; 
stroke:#000000; stroke-width:1.000000; stroke-opacity:1; 
stroke-linecap:round; stroke-linejoin:round;fill-rule:evenodd;"
d="M 31695000.000000,9296974.000000
31618463.000000,9281750.000000
31553579.000000,9238395.000000
31510224.000000,9173511.000000
31495000.000000,9096974.000000
31495000.000000,8696974.000000
31510224.000000,8620437.000000
31553579.000000,8555553.000000
31618463.000000,8512198.000000
31695000.000000,8496974.000000
32245000.000000,8496974.000000
32321537.000000,8512198.000000
32386421.000000,8555553.000000
32429776.000000,8620437.000000
32445000.000000,8696974.000000
32445000.000000,9096974.000000
32429776.000000,9173511.000000
32386421.000000,9238395.000000
32321537.000000,9281750.000000
32245000.000000,9296974.000000
Z" /> 
<path style="fill:#000000; fill-opacity:1.0; 
stroke:#000000; stroke-width:1.000000; stroke-opacity:1; 
stroke-linecap:round; stroke-linejoin:round;fill-rule:evenodd;"
d="M 31695000.000000,7646974.000000
31618463.000000,7631750.000000
31553579.000000,7588395.000000
31510224.000000,7523511.000000
31495000.000000,7446974.000000
31495000.000000,7046974.000000
31510224.000000,6970437.000000
31553579.000000,6905553.000000
31618463.000000,6862198.000000
31695000.000000,6846974.000000
32245000.000000,6846974.000000
32321537.000000,6862198.000000
32386421.000000,6905553.000000
32429776.000000,6970437.000000
32445000.000000,7046974.000000
32445000.000000,7446974.000000
32429776.000000,7523511.000000
32386421.000000,7588395.000000
32321537.000000,7631750.000000
32245000.000000,7646974.000000
Z" /> 
</g>
<g >
</g>
<g style="fill:#000000; fill-opacity:1.0; 
stroke:#000000; stroke-width:1.000000; stroke-opacity:1; 
stroke-linecap:round; stroke-linejoin:round;">
<path style="fill:#000000; fill-opacity:1.0; 
stroke:#000000; stroke-width:1.000000; stroke-opacity:1; 
stroke-linecap:round; stroke-linejoin:round;fill-rule:evenodd;"
d="M 22620000.000000,4596974.000000
22543463.000000,4581750.000000
22478579.000000,4538395.000000
22435224.000000,4473511.000000
22420000.000000,4396974.000000
22420000.000000,3996974.000000
22435224.000000,3920437.000000
22478579.000000,3855553.000000
22543463.000000,3812198.000000
22620000.000000,3796974.000000
23170000.000000,3796974.000000
23246537.000000,3812198.000000
23311421.000000,3855553.000000
23354776.000000,3920437.000000
23370000.000000,3996974.000000
23370000.000000,4396974.000000
23354776.000000,4473511.000000
23311421.000000,4538395.000000
23246537.000000,4581750.000000
23170000.000000,4596974.000000
Z" /> 
<path style="fill:#000000; fill-opacity:1.0; 
stroke:#000000; stroke-width:1.000000; stroke-opacity:1; 
stroke-linecap:round; stroke-linejoin:round;fill-rule:evenodd;"
d="M 22620000.000000,2946974.000000
22543463.000000,2931750.000000
22478579.000000,2888395.000000
22435224.000000,2823511.000000
22420000.000000,2746974.000000
22420000.000000,2346974.000000
22435224.000000,2270437.000000
22478579.000000,2205553.000000
22543463.000000,2162198.000000
22620000.000000,2146974.000000
23170000.000000,2146974.000000
23246537.000000,2162198.000000
23311421.000000,2205553.000000
23354776.000000,2270437.000000
23370000.000000,2346974.000000
23370000.000000,2746974.000000
23354776.000000,2823511.000000
23311421.000000,2888395.000000
23246537.000000,2931750.000000
23170000.000000,2946974.000000
Z" /> 
</g>
<g >
</g>
<g >
</g>
<g style="fill:#000000; fill-opacity:1.0; 
stroke:#000000; stroke-width:1.000000; stroke-opacity:1; 
stroke-linecap:round; stroke-linejoin:round;">
<path style="fill:#000000; fill-opacity:1.0; 
stroke:#000000; stroke-width:1.000000; stroke-opacity:1; 
stroke-linecap:round; stroke-linejoin:round;fill-rule:evenodd;"
d="M 27195000.000000,21921974.000000
27252403.000000,21933392.000000
27301066.000000,21965908.000000
27333582.000000,22014571.000000
27345000.000000,22071974.000000
27345000.000000,23246974.000000
27333582.000000,23304377.000000
27301066.000000,23353040.000000
27252403.000000,23385556.000000
27195000.000000,23396974.000000
26895000.000000,23396974.000000
26837597.000000,23385556.000000
26788934.000000,23353040.000000
26756418.000000,23304377.000000
26745000.000000,23246974.000000
26745000.000000,22071974.000000
26756418.000000,22014571.000000
26788934.000000,21965908.000000
26837597.000000,21933392.000000
26895000.000000,21921974.000000
Z" /> 
<path style="fill:#000000; fill-opacity:1.0; 
stroke:#000000; stroke-width:1.000000; stroke-opacity:1; 
stroke-linecap:round; stroke-linejoin:round;fill-rule:evenodd;"
d="M 25295000.000000,21921974.000000
25352403.000000,21933392.000000
25401066.000000,21965908.000000
25433582.000000,22014571.000000
25445000.000000,22071974.000000
25445000.000000,23246974.000000
25433582.000000,23304377.000000
25401066.000000,23353040.000000
25352403.000000,23385556.000000
25295000.000000,23396974.000000
24995000.000000,23396974.000000
24937597.000000,23385556.000000
24888934.000000,23353040.000000
24856418.000000,23304377.000000
24845000.000000,23246974.000000
24845000.000000,22071974.000000
24856418.000000,22014571.000000
24888934.000000,21965908.000000
24937597.000000,21933392.000000
24995000.000000,21921974.000000
Z" /> 
<path style="fill:#000000; fill-opacity:1.0; 
stroke:#000000; stroke-width:1.000000; stroke-opacity:1; 
stroke-linecap:round; stroke-linejoin:round;fill-rule:evenodd;"
d="M 26245000.000000,23796974.000000
26302403.000000,23808392.000000
26351066.000000,23840908.000000
26383582.000000,23889571.000000
26395000.000000,23946974.000000
26395000.000000,25121974.000000
26383582.000000,25179377.000000
26351066.000000,25228040.000000
26302403.000000,25260556.000000
26245000.000000,25271974.000000
25945000.000000,25271974.000000
25887597.000000,25260556.000000
25838934.000000,25228040.000000
25806418.000000,25179377.000000
25795000.000000,25121974.000000
25795000.000000,23946974.000000
25806418.000000,23889571.000000
25838934.000000,23840908.000000
25887597.000000,23808392.000000
25945000.000000,23796974.000000
Z" /> 
</g>
<g >
</g>
<g style="fill:#000000; fill-opacity:1.0; 
stroke:#000000; stroke-width:1.000000; stroke-opacity:1; 
stroke-linecap:round; stroke-linejoin:round;">
<path style="fill:#000000; fill-opacity:1.0; 
stroke:#000000; stroke-width:1.000000; stroke-opacity:1; 
stroke-linecap:round; stroke-linejoin:round;fill-rule:evenodd;"
d="M 35765000.000000,16271974.000000
35841537.000000,16287198.000000
35906421.000000,16330553.000000
35949776.000000,16395437.000000
35965000.000000,16471974.000000
35965000.000000,16871974.000000
35949776.000000,16948511.000000
35906421.000000,17013395.000000
35841537.000000,17056750.000000
35765000.000000,17071974.000000
35215000.000000,17071974.000000
35138463.000000,17056750.000000
35073579.000000,17013395.000000
35030224.000000,16948511.000000
35015000.000000,16871974.000000
35015000.000000,16471974.000000
35030224.000000,16395437.000000
35073579.000000,16330553.000000
35138463.000000,16287198.000000
35215000.000000,16271974.000000
Z" /> 
<path style="fill:#000000; fill-opacity:1.0; 
stroke:#000000; stroke-width:1.000000; stroke-opacity:1; 
stroke-linecap:round; stroke-linejoin:round;fill-rule:evenodd;"
d="M 35765000.000000,17921974.000000
35841537.000000,17937198.000000
35906421.000000,17980553.000000
35949776.000000,18045437.000000
35965000.000000,18121974.000000
35965000.000000,18521974.000000
35949776.000000,18598511.000000
35906421.000000,18663395.000000
35841537.000000,18706750.000000
35765000.000000,18721974.000000
35215000.000000,18721974.000000
35138463.000000,18706750.000000
35073579.000000,18663395.000000
35030224.000000,18598511.000000
35015000.000000,18521974.000000
35015000.000000,18121974.000000
35030224.000000,18045437.000000
35073579.000000,17980553.000000
35138463.000000,17937198.000000
35215000.000000,17921974.000000
Z" /> 
</g>
<g >
</g>
<g style="fill:#000000; fill-opacity:1.0; 
stroke:#000000; stroke-width:1.000000; stroke-opacity:1; 
stroke-linecap:round; stroke-linejoin:round;">
<path style="fill:#000000; fill-opacity:1.0; 
stroke:#000000; stroke-width:1.000000; stroke-opacity:1; 
stroke-linecap:round; stroke-linejoin:round;fill-rule:evenodd;"
d="M 47245000.000000,18721974.000000
47168463.000000,18706750.000000
47103579.000000,18663395.000000
47060224.000000,18598511.000000
47045000.000000,18521974.000000
47045000.000000,18121974.000000
47060224.000000,18045437.000000
47103579.000000,17980553.000000
47168463.000000,17937198.000000
47245000.000000,17921974.000000
47795000.000000,17921974.000000
47871537.000000,17937198.000000
47936421.000000,17980553.000000
47979776.000000,18045437.000000
47995000.000000,18121974.000000
47995000.000000,18521974.000000
47979776.000000,18598511.000000
47936421.000000,18663395.000000
47871537.000000,18706750.000000
47795000.000000,18721974.000000
Z" /> 
<path style="fill:#000000; fill-opacity:1.0; 
stroke:#000000; stroke-width:1.000000; stroke-opacity:1; 
stroke-linecap:round; stroke-linejoin:round;fill-rule:evenodd;"
d="M 47245000.000000,17071974.000000
47168463.000000,17056750.000000
47103579.000000,17013395.000000
47060224.000000,16948511.000000
47045000.000000,16871974.000000
47045000.000000,16471974.000000
47060224.000000,16395437.000000
47103579.000000,16330553.000000
47168463.000000,16287198.000000
47245000.000000,16271974.000000
47795000.000000,16271974.000000
47871537.000000,16287198.000000
47936421.000000,16330553.000000
47979776.000000,16395437.000000
47995000.000000,16471974.000000
47995000.000000,16871974.000000
47979776.000000,16948511.000000
47936421.000000,17013395.000000
47871537.000000,17056750.000000
47795000.000000,17071974.000000
Z" /> 
</g>
<g >
</g>
<g style="fill:#000000; fill-opacity:1.0; 
stroke:#000000; stroke-width:1.000000; stroke-opacity:1; 
stroke-linecap:round; stroke-linejoin:round;">
<path style="fill:#000000; fill-opacity:1.0; 
stroke:#000000; stroke-width:1.000000; stroke-opacity:1; 
stroke-linecap:round; stroke-linejoin:round;fill-rule:evenodd;"
d="M 28470000.000000,5046974.000000
28412597.000000,5035556.000000
28363934.000000,5003040.000000
28331418.000000,4954377.000000
28320000.000000,4896974.000000
28320000.000000,3721974.000000
28331418.000000,3664571.000000
28363934.000000,3615908.000000
28412597.000000,3583392.000000
28470000.000000,3571974.000000
28770000.000000,3571974.000000
28827403.000000,3583392.000000
28876066.000000,3615908.000000
28908582.000000,3664571.000000
28920000.000000,3721974.000000
28920000.000000,4896974.000000
28908582.000000,4954377.000000
28876066.000000,5003040.000000
28827403.000000,5035556.000000
28770000.000000,5046974.000000
Z" /> 
<path style="fill:#000000; fill-opacity:1.0; 
stroke:#000000; stroke-width:1.000000; stroke-opacity:1; 
stroke-linecap:round; stroke-linejoin:round;fill-rule:evenodd;"
d="M 30370000.000000,5046974.000000
30312597.000000,5035556.000000
30263934.000000,5003040.000000
30231418.000000,4954377.000000
30220000.000000,4896974.000000
30220000.000000,3721974.000000
30231418.000000,3664571.000000
30263934.000000,3615908.000000
30312597.000000,3583392.000000
30370000.000000,3571974.000000
30670000.000000,3571974.000000
30727403.000000,3583392.000000
30776066.000000,3615908.000000
30808582.000000,3664571.000000
30820000.000000,3721974.000000
30820000.000000,4896974.000000
30808582.000000,4954377.000000
30776066.000000,5003040.000000
30727403.000000,5035556.000000
30670000.000000,5046974.000000
Z" /> 
<path style="fill:#000000; fill-opacity:1.0; 
stroke:#000000; stroke-width:1.000000; stroke-opacity:1; 
stroke-linecap:round; stroke-linejoin:round;fill-rule:evenodd;"
d="M 29420000.000000,3171974.000000
29362597.000000,3160556.000000
29313934.000000,3128040.000000
29281418.000000,3079377.000000
29270000.000000,3021974.000000
29270000.000000,1846974.000000
29281418.000000,1789571.000000
29313934.000000,1740908.000000
29362597.000000,1708392.000000
29420000.000000,1696974.000000
29720000.000000,1696974.000000
29777403.000000,1708392.000000
29826066.000000,1740908.000000
29858582.000000,1789571.000000
29870000.000000,1846974.000000
29870000.000000,3021974.000000
29858582.000000,3079377.000000
29826066.000000,3128040.000000
29777403.000000,3160556.000000
29720000.000000,3171974.000000
Z" /> 
</g>
<g >
</g>
<g style="fill:#000000; fill-opacity:1.0; 
stroke:#000000; stroke-width:1.000000; stroke-opacity:1; 
stroke-linecap:round; stroke-linejoin:round;">
<path style="fill:#000000; fill-opacity:1.0; 
stroke:#000000; stroke-width:1.000000; stroke-opacity:1; 
stroke-linecap:round; stroke-linejoin:round;fill-rule:evenodd;"
d="M 45645000.000000,9296974.000000
45568463.000000,9281750.000000
45503579.000000,9238395.000000
45460224.000000,9173511.000000
45445000.000000,9096974.000000
45445000.000000,8696974.000000
45460224.000000,8620437.000000
45503579.000000,8555553.000000
45568463.000000,8512198.000000
45645000.000000,8496974.000000
46195000.000000,8496974.000000
46271537.000000,8512198.000000
46336421.000000,8555553.000000
46379776.000000,8620437.000000
46395000.000000,8696974.000000
46395000.000000,9096974.000000
46379776.000000,9173511.000000
46336421.000000,9238395.000000
46271537.000000,9281750.000000
46195000.000000,9296974.000000
Z" /> 
<path style="fill:#000000; fill-opacity:1.0; 
stroke:#000000; stroke-width:1.000000; stroke-opacity:1; 
stroke-linecap:round; stroke-linejoin:round;fill-rule:evenodd;"
d="M 45645000.000000,7646974.000000
45568463.000000,7631750.000000
45503579.000000,7588395.000000
45460224.000000,7523511.000000
45445000.000000,7446974.000000
45445000.000000,7046974.000000
45460224.000000,6970437.000000
45503579.000000,6905553.000000
45568463.000000,6862198.000000
45645000.000000,6846974.000000
46195000.000000,6846974.000000
46271537.000000,6862198.000000
46336421.000000,6905553.000000
46379776.000000,6970437.000000
46395000.000000,7046974.000000
46395000.000000,7446974.000000
46379776.000000,7523511.000000
46336421.000000,7588395.000000
46271537.000000,7631750.000000
46195000.000000,7646974.000000
Z" /> 
</g>
<g >
</g>
<g style="fill:#000000; fill-opacity:1.0; 
stroke:#000000; stroke-width:1.000000; stroke-opacity:1; 
stroke-linecap:round; stroke-linejoin:round;">
<path style="fill:#000000; fill-opacity:1.0; 
stroke:#000000; stroke-width:1.000000; stroke-opacity:1; 
stroke-linecap:round; stroke-linejoin:round;fill-rule:evenodd;"
d="M 22945000.000000,22396974.000000
23021537.000000,22412198.000000
23086421.000000,22455553.000000
23129776.000000,22520437.000000
23145000.000000,22596974.000000
23145000.000000,22996974.000000
23129776.000000,23073511.000000
23086421.000000,23138395.000000
23021537.000000,23181750.000000
22945000.000000,23196974.000000
22395000.000000,23196974.000000
22318463.000000,23181750.000000
22253579.000000,23138395.000000
22210224.000000,23073511.000000
22195000.000000,22996974.000000
22195000.000000,22596974.000000
22210224.000000,22520437.000000
22253579.000000,22455553.000000
22318463.000000,22412198.000000
22395000.000000,22396974.000000
Z" /> 
<path style="fill:#000000; fill-opacity:1.0; 
stroke:#000000; stroke-width:1.000000; stroke-opacity:1; 
stroke-linecap:round; stroke-linejoin:round;fill-rule:evenodd;"
d="M 22945000.000000,24046974.000000
23021537.000000,24062198.000000
23086421.000000,24105553.000000
23129776.000000,24170437.000000
23145000.000000,24246974.000000
23145000.000000,24646974.000000
23129776.000000,24723511.000000
23086421.000000,24788395.000000
23021537.000000,24831750.000000
22945000.000000,24846974.000000
22395000.000000,24846974.000000
22318463.000000,24831750.000000
22253579.000000,24788395.000000
22210224.000000,24723511.000000
22195000.000000,24646974.000000
22195000.000000,24246974.000000
22210224.000000,24170437.000000
22253579.000000,24105553.000000
22318463.000000,24062198.000000
22395000.000000,24046974.000000
Z" /> 
</g>
<g >
</g>
<g style="fill:#000000; fill-opacity:1.0; 
stroke:#000000; stroke-width:1.000000; stroke-opacity:1; 
stroke-linecap:round; stroke-linejoin:round;">
<path style="fill:#000000; fill-opacity:1.0; 
stroke:#000000; stroke-width:1.000000; stroke-opacity:1; 
stroke-linecap:round; stroke-linejoin:round;fill-rule:evenodd;"
d="M 40211666.000000,21921974.000000
40269069.000000,21933392.000000
40317732.000000,21965908.000000
40350248.000000,22014571.000000
40361666.000000,22071974.000000
40361666.000000,23246974.000000
40350248.000000,23304377.000000
40317732.000000,23353040.000000
40269069.000000,23385556.000000
40211666.000000,23396974.000000
39911666.000000,23396974.000000
39854263.000000,23385556.000000
39805600.000000,23353040.000000
39773084.000000,23304377.000000
39761666.000000,23246974.000000
39761666.000000,22071974.000000
39773084.000000,22014571.000000
39805600.000000,21965908.000000
39854263.000000,21933392.000000
39911666.000000,21921974.000000
Z" /> 
<path style="fill:#000000; fill-opacity:1.0; 
stroke:#000000; stroke-width:1.000000; stroke-opacity:1; 
stroke-linecap:round; stroke-linejoin:round;fill-rule:evenodd;"
d="M 38311666.000000,21921974.000000
38369069.000000,21933392.000000
38417732.000000,21965908.000000
38450248.000000,22014571.000000
38461666.000000,22071974.000000
38461666.000000,23246974.000000
38450248.000000,23304377.000000
38417732.000000,23353040.000000
38369069.000000,23385556.000000
38311666.000000,23396974.000000
38011666.000000,23396974.000000
37954263.000000,23385556.000000
37905600.000000,23353040.000000
37873084.000000,23304377.000000
37861666.000000,23246974.000000
37861666.000000,22071974.000000
37873084.000000,22014571.000000
37905600.000000,21965908.000000
37954263.000000,21933392.000000
38011666.000000,21921974.000000
Z" /> 
<path style="fill:#000000; fill-opacity:1.0; 
stroke:#000000; stroke-width:1.000000; stroke-opacity:1; 
stroke-linecap:round; stroke-linejoin:round;fill-rule:evenodd;"
d="M 39261666.000000,23796974.000000
39319069.000000,23808392.000000
39367732.000000,23840908.000000
39400248.000000,23889571.000000
39411666.000000,23946974.000000
39411666.000000,25121974.000000
39400248.000000,25179377.000000
39367732.000000,25228040.000000
39319069.000000,25260556.000000
39261666.000000,25271974.000000
38961666.000000,25271974.000000
38904263.000000,25260556.000000
38855600.000000,25228040.000000
38823084.000000,25179377.000000
38811666.000000,25121974.000000
38811666.000000,23946974.000000
38823084.000000,23889571.000000
38855600.000000,23840908.000000
38904263.000000,23808392.000000
38961666.000000,23796974.000000
Z" /> 
</g>
<g >
</g>
<g style="fill:#000000; fill-opacity:1.0; 
stroke:#000000; stroke-width:1.000000; stroke-opacity:1; 
stroke-linecap:round; stroke-linejoin:round;">
<path style="fill:#000000; fill-opacity:1.0; 
stroke:#000000; stroke-width:1.000000; stroke-opacity:1; 
stroke-linecap:round; stroke-linejoin:round;fill-rule:evenodd;"
d="M 37220000.000000,5046974.000000
37162597.000000,5035556.000000
37113934.000000,5003040.000000
37081418.000000,4954377.000000
37070000.000000,4896974.000000
37070000.000000,3721974.000000
37081418.000000,3664571.000000
37113934.000000,3615908.000000
37162597.000000,3583392.000000
37220000.000000,3571974.000000
37520000.000000,3571974.000000
37577403.000000,3583392.000000
37626066.000000,3615908.000000
37658582.000000,3664571.000000
37670000.000000,3721974.000000
37670000.000000,4896974.000000
37658582.000000,4954377.000000
37626066.000000,5003040.000000
37577403.000000,5035556.000000
37520000.000000,5046974.000000
Z" /> 
<path style="fill:#000000; fill-opacity:1.0; 
stroke:#000000; stroke-width:1.000000; stroke-opacity:1; 
stroke-linecap:round; stroke-linejoin:round;fill-rule:evenodd;"
d="M 39120000.000000,5046974.000000
39062597.000000,5035556.000000
39013934.000000,5003040.000000
38981418.000000,4954377.000000
38970000.000000,4896974.000000
38970000.000000,3721974.000000
38981418.000000,3664571.000000
39013934.000000,3615908.000000
39062597.000000,3583392.000000
39120000.000000,3571974.000000
39420000.000000,3571974.000000
39477403.000000,3583392.000000
39526066.000000,3615908.000000
39558582.000000,3664571.000000
39570000.000000,3721974.000000
39570000.000000,4896974.000000
39558582.000000,4954377.000000
39526066.000000,5003040.000000
39477403.000000,5035556.000000
39420000.000000,5046974.000000
Z" /> 
<path style="fill:#000000; fill-opacity:1.0; 
stroke:#000000; stroke-width:1.000000; stroke-opacity:1; 
stroke-linecap:round; stroke-linejoin:round;fill-rule:evenodd;"
d="M 38170000.000000,3171974.000000
38112597.000000,3160556.000000
38063934.000000,3128040.000000
38031418.000000,3079377.000000
38020000.000000,3021974.000000
38020000.000000,1846974.000000
38031418.000000,1789571.000000
38063934.000000,1740908.000000
38112597.000000,1708392.000000
38170000.000000,1696974.000000
38470000.000000,1696974.000000
38527403.000000,1708392.000000
38576066.000000,1740908.000000
38608582.000000,1789571.000000
38620000.000000,1846974.000000
38620000.000000,3021974.000000
38608582.000000,3079377.000000
38576066.000000,3128040.000000
38527403.000000,3160556.000000
38470000.000000,3171974.000000
Z" /> 
</g>
<g >
</g>
<g >
</g>
<g style="fill:#000000; fill-opacity:1.0; 
stroke:#000000; stroke-width:1.000000; stroke-opacity:1; 
stroke-linecap:round; stroke-linejoin:round;">
<path style="fill:#000000; fill-opacity:1.0; 
stroke:#000000; stroke-width:1.000000; stroke-opacity:1; 
stroke-linecap:round; stroke-linejoin:round;fill-rule:evenodd;"
d="M 27045000.000000,9296974.000000
26968463.000000,9281750.000000
26903579.000000,9238395.000000
26860224.000000,9173511.000000
26845000.000000,9096974.000000
26845000.000000,8696974.000000
26860224.000000,8620437.000000
26903579.000000,8555553.000000
26968463.000000,8512198.000000
27045000.000000,8496974.000000
27595000.000000,8496974.000000
27671537.000000,8512198.000000
27736421.000000,8555553.000000
27779776.000000,8620437.000000
27795000.000000,8696974.000000
27795000.000000,9096974.000000
27779776.000000,9173511.000000
27736421.000000,9238395.000000
27671537.000000,9281750.000000
27595000.000000,9296974.000000
Z" /> 
<path style="fill:#000000; fill-opacity:1.0; 
stroke:#000000; stroke-width:1.000000; stroke-opacity:1; 
stroke-linecap:round; stroke-linejoin:round;fill-rule:evenodd;"
d="M 27045000.000000,7646974.000000
26968463.000000,7631750.000000
26903579.000000,7588395.000000
26860224.000000,7523511.000000
26845000.000000,7446974.000000
26845000.000000,7046974.000000
26860224.000000,6970437.000000
26903579.000000,6905553.000000
26968463.000000,6862198.000000
27045000.000000,6846974.000000
27595000.000000,6846974.000000
27671537.000000,6862198.000000
27736421.000000,6905553.000000
27779776.000000,6970437.000000
27795000.000000,7046974.000000
27795000.000000,7446974.000000
27779776.000000,7523511.000000
27736421.000000,7588395.000000
27671537.000000,7631750.000000
27595000.000000,7646974.000000
Z" /> 
</g>
<g >
</g>
<g style="fill:#000000; fill-opacity:1.0; 
stroke:#000000; stroke-width:1.000000; stroke-opacity:1; 
stroke-linecap:round; stroke-linejoin:round;">
<path style="fill:#000000; fill-opacity:1.0; 
stroke:#000000; stroke-width:1.000000; stroke-opacity:1; 
stroke-linecap:round; stroke-linejoin:round;fill-rule:evenodd;"
d="M 46720000.000000,21921974.000000
46777403.000000,21933392.000000
46826066.000000,21965908.000000
46858582.000000,22014571.000000
46870000.000000,22071974.000000
46870000.000000,23246974.000000
46858582.000000,23304377.000000
46826066.000000,23353040.000000
46777403.000000,23385556.000000
46720000.000000,23396974.000000
46420000.000000,23396974.000000
46362597.000000,23385556.000000
46313934.000000,23353040.000000
46281418.000000,23304377.000000
46270000.000000,23246974.000000
46270000.000000,22071974.000000
46281418.000000,22014571.000000
46313934.000000,21965908.000000
46362597.000000,21933392.000000
46420000.000000,21921974.000000
Z" /> 
<path style="fill:#000000; fill-opacity:1.0; 
stroke:#000000; stroke-width:1.000000; stroke-opacity:1; 
stroke-linecap:round; stroke-linejoin:round;fill-rule:evenodd;"
d="M 44820000.000000,21921974.000000
44877403.000000,21933392.000000
44926066.000000,21965908.000000
44958582.000000,22014571.000000
44970000.000000,22071974.000000
44970000.000000,23246974.000000
44958582.000000,23304377.000000
44926066.000000,23353040.000000
44877403.000000,23385556.000000
44820000.000000,23396974.000000
44520000.000000,23396974.000000
44462597.000000,23385556.000000
44413934.000000,23353040.000000
44381418.000000,23304377.000000
44370000.000000,23246974.000000
44370000.000000,22071974.000000
44381418.000000,22014571.000000
44413934.000000,21965908.000000
44462597.000000,21933392.000000
44520000.000000,21921974.000000
Z" /> 
<path style="fill:#000000; fill-opacity:1.0; 
stroke:#000000; stroke-width:1.000000; stroke-opacity:1; 
stroke-linecap:round; stroke-linejoin:round;fill-rule:evenodd;"
d="M 45770000.000000,23796974.000000
45827403.000000,23808392.000000
45876066.000000,23840908.000000
45908582.000000,23889571.000000
45920000.000000,23946974.000000
45920000.000000,25121974.000000
45908582.000000,25179377.000000
45876066.000000,25228040.000000
45827403.000000,25260556.000000
45770000.000000,25271974.000000
45470000.000000,25271974.000000
45412597.000000,25260556.000000
45363934.000000,25228040.000000
45331418.000000,25179377.000000
45320000.000000,25121974.000000
45320000.000000,23946974.000000
45331418.000000,23889571.000000
45363934.000000,23840908.000000
45412597.000000,23808392.000000
45470000.000000,23796974.000000
Z" /> 
</g>
<g >
</g>
<g style="fill:#000000; fill-opacity:1.0; 
stroke:#000000; stroke-width:1.000000; stroke-opacity:1; 
stroke-linecap:round; stroke-linejoin:round;">
<path style="fill:#000000; fill-opacity:1.0; 
stroke:#000000; stroke-width:1.000000; stroke-opacity:1; 
stroke-linecap:round; stroke-linejoin:round;fill-rule:evenodd;"
d="M 43785000.000000,16271974.000000
43861537.000000,16287198.000000
43926421.000000,16330553.000000
43969776.000000,16395437.000000
43985000.000000,16471974.000000
43985000.000000,16871974.000000
43969776.000000,16948511.000000
43926421.000000,17013395.000000
43861537.000000,17056750.000000
43785000.000000,17071974.000000
43235000.000000,17071974.000000
43158463.000000,17056750.000000
43093579.000000,17013395.000000
43050224.000000,16948511.000000
43035000.000000,16871974.000000
43035000.000000,16471974.000000
43050224.000000,16395437.000000
43093579.000000,16330553.000000
43158463.000000,16287198.000000
43235000.000000,16271974.000000
Z" /> 
<path style="fill:#000000; fill-opacity:1.0; 
stroke:#000000; stroke-width:1.000000; stroke-opacity:1; 
stroke-linecap:round; stroke-linejoin:round;fill-rule:evenodd;"
d="M 43785000.000000,17921974.000000
43861537.000000,17937198.000000
43926421.000000,17980553.000000
43969776.000000,18045437.000000
43985000.000000,18121974.000000
43985000.000000,18521974.000000
43969776.000000,18598511.000000
43926421.000000,18663395.000000
43861537.000000,18706750.000000
43785000.000000,18721974.000000
43235000.000000,18721974.000000
43158463.000000,18706750.000000
43093579.000000,18663395.000000
43050224.000000,18598511.000000
43035000.000000,18521974.000000
43035000.000000,18121974.000000
43050224.000000,18045437.000000
43093579.000000,17980553.000000
43158463.000000,17937198.000000
43235000.000000,17921974.000000
Z" /> 
</g>
<g >
</g>
<g >
</g>
<g >
</g>
<g >
</g>
<g >
</g>
<g style="fill:#000000; fill-opacity:1.0; 
stroke:#000000; stroke-width:1.000000; stroke-opacity:1; 
stroke-linecap:round; stroke-linejoin:round;">
<path style="fill:#000000; fill-opacity:1.0; 
stroke:#000000; stroke-width:1.000000; stroke-opacity:1; 
stroke-linecap:round; stroke-linejoin:round;fill-rule:evenodd;"
d="M 40995000.000000,9296974.000000
40918463.000000,9281750.000000
40853579.000000,9238395.000000
40810224.000000,9173511.000000
40795000.000000,9096974.000000
40795000.000000,8696974.000000
40810224.000000,8620437.000000
40853579.000000,8555553.000000
40918463.000000,8512198.000000
40995000.000000,8496974.000000
41545000.000000,8496974.000000
41621537.000000,8512198.000000
41686421.000000,8555553.000000
41729776.000000,8620437.000000
41745000.000000,8696974.000000
41745000.000000,9096974.000000
41729776.000000,9173511.000000
41686421.000000,9238395.000000
41621537.000000,9281750.000000
41545000.000000,9296974.000000
Z" /> 
<path style="fill:#000000; fill-opacity:1.0; 
stroke:#000000; stroke-width:1.000000; stroke-opacity:1; 
stroke-linecap:round; stroke-linejoin:round;fill-rule:evenodd;"
d="M 40995000.000000,7646974.000000
40918463.000000,7631750.000000
40853579.000000,7588395.000000
40810224.000000,7523511.000000
40795000.000000,7446974.000000
40795000.000000,7046974.000000
40810224.000000,6970437.000000
40853579.000000,6905553.000000
40918463.000000,6862198.000000
40995000.000000,6846974.000000
41545000.000000,6846974.000000
41621537.000000,6862198.000000
41686421.000000,6905553.000000
41729776.000000,6970437.000000
41745000.000000,7046974.000000
41745000.000000,7446974.000000
41729776.000000,7523511.000000
41686421.000000,7588395.000000
41621537.000000,7631750.000000
41545000.000000,7646974.000000
Z" /> 
</g>
<g >
</g>
<g >
</g>
<g >
</g>
<g >
</g>
<g style="fill:#000000; fill-opacity:1.0; 
stroke:#000000; stroke-width:1.000000; stroke-opacity:1; 
stroke-linecap:round; stroke-linejoin:round;">
<path style="fill:#000000; fill-opacity:1.0; 
stroke:#000000; stroke-width:1.000000; stroke-opacity:1; 
stroke-linecap:round; stroke-linejoin:round;fill-rule:evenodd;"
d="M 44345000.000000,5046974.000000
44287597.000000,5035556.000000
44238934.000000,5003040.000000
44206418.000000,4954377.000000
44195000.000000,4896974.000000
44195000.000000,3721974.000000
44206418.000000,3664571.000000
44238934.000000,3615908.000000
44287597.000000,3583392.000000
44345000.000000,3571974.000000
44645000.000000,3571974.000000
44702403.000000,3583392.000000
44751066.000000,3615908.000000
44783582.000000,3664571.000000
44795000.000000,3721974.000000
44795000.000000,4896974.000000
44783582.000000,4954377.000000
44751066.000000,5003040.000000
44702403.000000,5035556.000000
44645000.000000,5046974.000000
Z" /> 
<path style="fill:#000000; fill-opacity:1.0; 
stroke:#000000; stroke-width:1.000000; stroke-opacity:1; 
stroke-linecap:round; stroke-linejoin:round;fill-rule:evenodd;"
d="M 46245000.000000,5046974.000000
46187597.000000,5035556.000000
46138934.000000,5003040.000000
46106418.000000,4954377.000000
46095000.000000,4896974.000000
46095000.000000,3721974.000000
46106418.000000,3664571.000000
46138934.000000,3615908.000000
46187597.000000,3583392.000000
46245000.000000,3571974.000000
46545000.000000,3571974.000000
46602403.000000,3583392.000000
46651066.000000,3615908.000000
46683582.000000,3664571.000000
46695000.000000,3721974.000000
46695000.000000,4896974.000000
46683582.000000,4954377.000000
46651066.000000,5003040.000000
46602403.000000,5035556.000000
46545000.000000,5046974.000000
Z" /> 
<path style="fill:#000000; fill-opacity:1.0; 
stroke:#000000; stroke-width:1.000000; stroke-opacity:1; 
stroke-linecap:round; stroke-linejoin:round;fill-rule:evenodd;"
d="M 45295000.000000,3171974.000000
45237597.000000,3160556.000000
45188934.000000,3128040.000000
45156418.000000,3079377.000000
45145000.000000,3021974.000000
45145000.000000,1846974.000000
45156418.000000,1789571.000000
45188934.000000,1740908.000000
45237597.000000,1708392.000000
45295000.000000,1696974.000000
45595000.000000,1696974.000000
45652403.000000,1708392.000000
45701066.000000,1740908.000000
45733582.000000,1789571.000000
45745000.000000,1846974.000000
45745000.000000,3021974.000000
45733582.000000,3079377.000000
45701066.000000,3128040.000000
45652403.000000,3160556.000000
45595000.000000,3171974.000000
Z" /> 
</g>
<g >
</g>
<g >
</g>
<g >
</g>
<g style="fill:#000000; fill-opacity:1.0; 
stroke:#000000; stroke-width:1.000000; stroke-opacity:1; 
stroke-linecap:round; stroke-linejoin:round;">
<path style="fill:#000000; fill-opacity:1.0; 
stroke:#000000; stroke-width:1.000000; stroke-opacity:1; 
stroke-linecap:round; stroke-linejoin:round;fill-rule:evenodd;"
d="M 31205000.000000,18721974.000000
31128463.000000,18706750.000000
31063579.000000,18663395.000000
31020224.000000,18598511.000000
31005000.000000,18521974.000000
31005000.000000,18121974.000000
31020224.000000,18045437.000000
31063579.000000,17980553.000000
31128463.000000,17937198.000000
31205000.000000,17921974.000000
31755000.000000,17921974.000000
31831537.000000,17937198.000000
31896421.000000,17980553.000000
31939776.000000,18045437.000000
31955000.000000,18121974.000000
31955000.000000,18521974.000000
31939776.000000,18598511.000000
31896421.000000,18663395.000000
31831537.000000,18706750.000000
31755000.000000,18721974.000000
Z" /> 
<path style="fill:#000000; fill-opacity:1.0; 
stroke:#000000; stroke-width:1.000000; stroke-opacity:1; 
stroke-linecap:round; stroke-linejoin:round;fill-rule:evenodd;"
d="M 31205000.000000,17071974.000000
31128463.000000,17056750.000000
31063579.000000,17013395.000000
31020224.000000,16948511.000000
31005000.000000,16871974.000000
31005000.000000,16471974.000000
31020224.000000,16395437.000000
31063579.000000,16330553.000000
31128463.000000,16287198.000000
31205000.000000,16271974.000000
31755000.000000,16271974.000000
31831537.000000,16287198.000000
31896421.000000,16330553.000000
31939776.000000,16395437.000000
31955000.000000,16471974.000000
31955000.000000,16871974.000000
31939776.000000,16948511.000000
31896421.000000,17013395.000000
31831537.000000,17056750.000000
31755000.000000,17071974.000000
Z" /> 
</g>
<g >
</g>
<g style="fill:#000000; fill-opacity:1.0; 
stroke:#000000; stroke-width:1.000000; stroke-opacity:1; 
stroke-linecap:round; stroke-linejoin:round;">
<path style="fill:#000000; fill-opacity:1.0; 
stroke:#000000; stroke-width:1.000000; stroke-opacity:1; 
stroke-linecap:round; stroke-linejoin:round;fill-rule:evenodd;"
d="M 36345000.000000,9296974.000000
36268463.000000,9281750.000000
36203579.000000,9238395.000000
36160224.000000,9173511.000000
36145000.000000,9096974.000000
36145000.000000,8696974.000000
36160224.000000,8620437.000000
36203579.000000,8555553.000000
36268463.000000,8512198.000000
36345000.000000,8496974.000000
36895000.000000,8496974.000000
36971537.000000,8512198.000000
37036421.000000,8555553.000000
37079776.000000,8620437.000000
37095000.000000,8696974.000000
37095000.000000,9096974.000000
37079776.000000,9173511.000000
37036421.000000,9238395.000000
36971537.000000,9281750.000000
36895000.000000,9296974.000000
Z" /> 
<path style="fill:#000000; fill-opacity:1.0; 
stroke:#000000; stroke-width:1.000000; stroke-opacity:1; 
stroke-linecap:round; stroke-linejoin:round;fill-rule:evenodd;"
d="M 36345000.000000,7646974.000000
36268463.000000,7631750.000000
36203579.000000,7588395.000000
36160224.000000,7523511.000000
36145000.000000,7446974.000000
36145000.000000,7046974.000000
36160224.000000,6970437.000000
36203579.000000,6905553.000000
36268463.000000,6862198.000000
36345000.000000,6846974.000000
36895000.000000,6846974.000000
36971537.000000,6862198.000000
37036421.000000,6905553.000000
37079776.000000,6970437.000000
37095000.000000,7046974.000000
37095000.000000,7446974.000000
37079776.000000,7523511.000000
37036421.000000,7588395.000000
36971537.000000,7631750.000000
36895000.000000,7646974.000000
Z" /> 
</g>
<g >
</g>
<g style="fill:#000000; fill-opacity:1.0; 
stroke:#000000; stroke-width:1.000000; stroke-opacity:1; 
stroke-linecap:round; stroke-linejoin:round;">
<path style="fill:#000000; fill-opacity:1.0; 
stroke:#000000; stroke-width:1.000000; stroke-opacity:1; 
stroke-linecap:round; stroke-linejoin:round;fill-rule:evenodd;"
d="M 33703333.000000,21921974.000000
33760736.000000,21933392.000000
33809399.000000,21965908.000000
33841915.000000,22014571.000000
33853333.000000,22071974.000000
33853333.000000,23246974.000000
33841915.000000,23304377.000000
33809399.000000,23353040.000000
33760736.000000,23385556.000000
33703333.000000,23396974.000000
33403333.000000,23396974.000000
33345930.000000,23385556.000000
33297267.000000,23353040.000000
33264751.000000,23304377.000000
33253333.000000,23246974.000000
33253333.000000,22071974.000000
33264751.000000,22014571.000000
33297267.000000,21965908.000000
33345930.000000,21933392.000000
33403333.000000,21921974.000000
Z" /> 
<path style="fill:#000000; fill-opacity:1.0; 
stroke:#000000; stroke-width:1.000000; stroke-opacity:1; 
stroke-linecap:round; stroke-linejoin:round;fill-rule:evenodd;"
d="M 31803333.000000,21921974.000000
31860736.000000,21933392.000000
31909399.000000,21965908.000000
31941915.000000,22014571.000000
31953333.000000,22071974.000000
31953333.000000,23246974.000000
31941915.000000,23304377.000000
31909399.000000,23353040.000000
31860736.000000,23385556.000000
31803333.000000,23396974.000000
31503333.000000,23396974.000000
31445930.000000,23385556.000000
31397267.000000,23353040.000000
31364751.000000,23304377.000000
31353333.000000,23246974.000000
31353333.000000,22071974.000000
31364751.000000,22014571.000000
31397267.000000,21965908.000000
31445930.000000,21933392.000000
31503333.000000,21921974.000000
Z" /> 
<path style="fill:#000000; fill-opacity:1.0; 
stroke:#000000; stroke-width:1.000000; stroke-opacity:1; 
stroke-linecap:round; stroke-linejoin:round;fill-rule:evenodd;"
d="M 32753333.000000,23796974.000000
32810736.000000,23808392.000000
32859399.000000,23840908.000000
32891915.000000,23889571.000000
32903333.000000,23946974.000000
32903333.000000,25121974.000000
32891915.000000,25179377.000000
32859399.000000,25228040.000000
32810736.000000,25260556.000000
32753333.000000,25271974.000000
32453333.000000,25271974.000000
32395930.000000,25260556.000000
32347267.000000,25228040.000000
32314751.000000,25179377.000000
32303333.000000,25121974.000000
32303333.000000,23946974.000000
32314751.000000,23889571.000000
32347267.000000,23840908.000000
32395930.000000,23808392.000000
32453333.000000,23796974.000000
Z" /> 
</g>
<g >
</g>
<g >
</g>
<g style="fill:#000000; fill-opacity:1.0; 
stroke:#000000; stroke-width:1.000000; stroke-opacity:1; 
stroke-linecap:round; stroke-linejoin:round;">
<path style="fill:#000000; fill-opacity:1.0; 
stroke:#000000; stroke-width:1.000000; stroke-opacity:1; 
stroke-linecap:round; stroke-linejoin:round;fill-rule:evenodd;"
d="M 27195000.000000,18721974.000000
27118463.000000,18706750.000000
27053579.000000,18663395.000000
27010224.000000,18598511.000000
26995000.000000,18521974.000000
26995000.000000,18121974.000000
27010224.000000,18045437.000000
27053579.000000,17980553.000000
27118463.000000,17937198.000000
27195000.000000,17921974.000000
27745000.000000,17921974.000000
27821537.000000,17937198.000000
27886421.000000,17980553.000000
27929776.000000,18045437.000000
27945000.000000,18121974.000000
27945000.000000,18521974.000000
27929776.000000,18598511.000000
27886421.000000,18663395.000000
27821537.000000,18706750.000000
27745000.000000,18721974.000000
Z" /> 
<path style="fill:#000000; fill-opacity:1.0; 
stroke:#000000; stroke-width:1.000000; stroke-opacity:1; 
stroke-linecap:round; stroke-linejoin:round;fill-rule:evenodd;"
d="M 27195000.000000,17071974.000000
27118463.000000,17056750.000000
27053579.000000,17013395.000000
27010224.000000,16948511.000000
26995000.000000,16871974.000000
26995000.000000,16471974.000000
27010224.000000,16395437.000000
27053579.000000,16330553.000000
27118463.000000,16287198.000000
27195000.000000,16271974.000000
27745000.000000,16271974.000000
27821537.000000,16287198.000000
27886421.000000,16330553.000000
27929776.000000,16395437.000000
27945000.000000,16471974.000000
27945000.000000,16871974.000000
27929776.000000,16948511.000000
27886421.000000,17013395.000000
27821537.000000,17056750.000000
27745000.000000,17071974.000000
Z" /> 
</g>
<g >
</g>
<g style="fill:#000000; fill-opacity:1.0; 
stroke:#000000; stroke-width:1.000000; stroke-opacity:1; 
stroke-linecap:round; stroke-linejoin:round;">
<path style="fill:#000000; fill-opacity:1.0; 
stroke:#000000; stroke-width:1.000000; stroke-opacity:1; 
stroke-linecap:round; stroke-linejoin:round;fill-rule:evenodd;"
d="M 39225000.000000,18721974.000000
39148463.000000,18706750.000000
39083579.000000,18663395.000000
39040224.000000,18598511.000000
39025000.000000,18521974.000000
39025000.000000,18121974.000000
39040224.000000,18045437.000000
39083579.000000,17980553.000000
39148463.000000,17937198.000000
39225000.000000,17921974.000000
39775000.000000,17921974.000000
39851537.000000,17937198.000000
39916421.000000,17980553.000000
39959776.000000,18045437.000000
39975000.000000,18121974.000000
39975000.000000,18521974.000000
39959776.000000,18598511.000000
39916421.000000,18663395.000000
39851537.000000,18706750.000000
39775000.000000,18721974.000000
Z" /> 
<path style="fill:#000000; fill-opacity:1.0; 
stroke:#000000; stroke-width:1.000000; stroke-opacity:1; 
stroke-linecap:round; stroke-linejoin:round;fill-rule:evenodd;"
d="M 39225000.000000,17071974.000000
39148463.000000,17056750.000000
39083579.000000,17013395.000000
39040224.000000,16948511.000000
39025000.000000,16871974.000000
39025000.000000,16471974.000000
39040224.000000,16395437.000000
39083579.000000,16330553.000000
39148463.000000,16287198.000000
39225000.000000,16271974.000000
39775000.000000,16271974.000000
39851537.000000,16287198.000000
39916421.000000,16330553.000000
39959776.000000,16395437.000000
39975000.000000,16471974.000000
39975000.000000,16871974.000000
39959776.000000,16948511.000000
39916421.000000,17013395.000000
39851537.000000,17056750.000000
39775000.000000,17071974.000000
Z" /> 
</g>
<g >
</g>
<g >
</g>
<g >
</g>
<g >
</g>
<g >
</g>
</g> 
</svg>
